<svg xmlns="http://www.w3.org/2000/svg" viewBox="0 0 1200 600" role="img" aria-label="Dos vias de financiacion comparadas una frente a otra">
  <rect width="1200" height="600" fill="#0E0F0C"/>
  <rect width="1200" height="600" fill="url(#g6)"/>
  <defs>
    <linearGradient id="g6" x1="1" y1="1" x2="0" y2="0">
      <stop offset="0" stop-color="#132D24" stop-opacity=".8"/>
      <stop offset="1" stop-color="#0E0F0C" stop-opacity="0"/>
    </linearGradient>
  </defs>
  <rect x="140" y="120" width="420" height="360" rx="20" fill="#161814" stroke="#2A2E28" stroke-width="2"/>
  <rect x="640" y="120" width="420" height="360" rx="20" fill="#132D24" stroke="#10B981" stroke-width="2"/>
  <g fill="#8C918A" fill-opacity=".4">
    <rect x="184" y="172" width="150" height="12" rx="6"/>
    <rect x="184" y="236" width="330" height="10" rx="5"/>
    <rect x="184" y="268" width="290" height="10" rx="5"/>
    <rect x="184" y="300" width="310" height="10" rx="5"/>
    <rect x="184" y="332" width="220" height="10" rx="5"/>
  </g>
  <g fill="#34D399" fill-opacity=".55">
    <rect x="684" y="172" width="150" height="12" rx="6"/>
  </g>
  <g fill="#8C918A" fill-opacity=".4">
    <rect x="684" y="236" width="330" height="10" rx="5"/>
    <rect x="684" y="268" width="290" height="10" rx="5"/>
    <rect x="684" y="300" width="310" height="10" rx="5"/>
    <rect x="684" y="332" width="220" height="10" rx="5"/>
  </g>
  <g stroke="#8C918A" stroke-opacity=".5" stroke-width="4" fill="none" stroke-linecap="round">
    <path d="M188 404 l 14 14 l 26 -30"/>
    <path d="M256 404 l 14 14 l 26 -30"/>
  </g>
  <g stroke="#34D399" stroke-width="4" fill="none" stroke-linecap="round">
    <path d="M688 404 l 14 14 l 26 -30"/>
    <path d="M756 404 l 14 14 l 26 -30"/>
    <path d="M824 404 l 14 14 l 26 -30"/>
    <path d="M892 404 l 14 14 l 26 -30"/>
  </g>
  <circle cx="600" cy="300" r="34" fill="#0E0F0C" stroke="#2A2E28" stroke-width="2"/>
  <path d="M586 288 l 28 24 M586 312 l 28 -24" stroke="#8C918A" stroke-width="3" stroke-linecap="round"/>
</svg>
