<svg xmlns="http://www.w3.org/2000/svg" viewBox="0 0 1200 600" role="img" aria-label="Una red de clientes que converge en un punto central">
  <rect width="1200" height="600" fill="#0E0F0C"/>
  <rect width="1200" height="600" fill="url(#g4)"/>
  <defs>
    <radialGradient id="g4" cx=".5" cy=".5" r=".6">
      <stop offset="0" stop-color="#132D24" stop-opacity=".9"/>
      <stop offset="1" stop-color="#0E0F0C" stop-opacity="0"/>
    </radialGradient>
  </defs>
  <g stroke="#2A2E28" stroke-width="2">
    <path d="M600 300 L 250 130"/><path d="M600 300 L 200 300"/><path d="M600 300 L 260 470"/>
    <path d="M600 300 L 430 110"/><path d="M600 300 L 430 490"/><path d="M600 300 L 780 120"/>
    <path d="M600 300 L 800 480"/><path d="M600 300 L 960 210"/><path d="M600 300 L 960 390"/>
    <path d="M600 300 L 1030 300"/>
  </g>
  <g stroke="#10B981" stroke-width="3">
    <path d="M600 300 L 250 130"/><path d="M600 300 L 780 120"/><path d="M600 300 L 960 390"/>
    <path d="M600 300 L 430 490"/>
  </g>
  <g fill="#161814" stroke="#2A2E28" stroke-width="2">
    <circle cx="200" cy="300" r="18"/><circle cx="260" cy="470" r="18"/><circle cx="430" cy="110" r="18"/>
    <circle cx="800" cy="480" r="18"/><circle cx="960" cy="210" r="18"/><circle cx="1030" cy="300" r="18"/>
  </g>
  <g fill="#132D24" stroke="#10B981" stroke-width="3">
    <circle cx="250" cy="130" r="20"/><circle cx="780" cy="120" r="20"/>
    <circle cx="960" cy="390" r="20"/><circle cx="430" cy="490" r="20"/>
  </g>
  <circle cx="600" cy="300" r="52" fill="#0E0F0C" stroke="#10B981" stroke-width="5"/>
  <circle cx="600" cy="300" r="20" fill="#34D399"/>
</svg>
